<svg id="visual" viewBox="0 0 900 600" width="900" height="600" xmlns="http://www.w3.org/2000/svg" xmlns:xlink="http://www.w3.org/1999/xlink" version="1.1"><path d="M0 151L150 109L300 145L450 127L600 139L750 145L900 109L900 0L750 0L600 0L450 0L300 0L150 0L0 0Z" fill="#038373"></path><path d="M0 223L150 151L300 181L450 175L600 175L750 205L900 139L900 107L750 143L600 137L450 125L300 143L150 107L0 149Z" fill="#00a182"></path><path d="M0 259L150 217L300 247L450 241L600 235L750 241L900 175L900 137L750 203L600 173L450 173L300 179L150 149L0 221Z" fill="#00c08c"></path><path d="M0 409L150 391L300 385L450 385L600 379L750 361L900 403L900 173L750 239L600 233L450 239L300 245L150 215L0 257Z" fill="#00cc8e"></path><path d="M0 493L150 469L300 433L450 433L600 475L750 427L900 463L900 401L750 359L600 377L450 383L300 383L150 389L0 407Z" fill="#00c08c"></path><path d="M0 571L150 547L300 541L450 547L600 559L750 559L900 565L900 461L750 425L600 473L450 431L300 431L150 467L0 491Z" fill="#00a182"></path><path d="M0 601L150 601L300 601L450 601L600 601L750 601L900 601L900 563L750 557L600 557L450 545L300 539L150 545L0 569Z" fill="#038373"></path></svg>